<?xml version="1.0" standalone="no"?>
<!DOCTYPE svg PUBLIC "-//W3C//DTD SVG 20010904//EN"
 "http://www.w3.org/TR/2001/REC-SVG-20010904/DTD/svg10.dtd">
<svg version="1.0" xmlns="http://www.w3.org/2000/svg"
 width="1000.000000pt" height="1000.000000pt" viewBox="0 0 1000.000000 1000.000000"
 preserveAspectRatio="xMidYMid meet">
<metadata>
Created by potrace 1.11, written by Peter Selinger 2001-2013
</metadata>
<g transform="translate(0.000000,1000.000000) scale(0.100000,-0.100000)"
fill="#000000" stroke="none">
<path d="M3772 9555 c-86 -56 -97 -161 -30 -305 26 -54 31 -80 35 -158 3 -83
8 -103 46 -185 l41 -92 1 -137 1 -137 -51 -16 c-27 -10 -56 -22 -62 -27 -17
-14 -16 -8 4 33 9 19 19 60 21 91 4 48 0 64 -21 100 -34 58 -68 92 -121 123
-38 22 -44 31 -49 68 -4 23 -11 62 -16 87 -6 25 -12 55 -15 67 -8 36 -46 116
-65 138 -13 13 -20 41 -23 85 -8 99 -61 199 -129 244 -67 43 -161 19 -193 -49
-20 -42 -19 -48 41 -175 40 -83 82 -140 106 -140 4 0 3 -10 -4 -21 -33 -62 4
-192 83 -297 47 -62 50 -70 53 -133 3 -68 22 -139 37 -139 4 0 8 -8 8 -17 0
-63 90 -126 165 -117 l40 6 -87 -65 c-98 -73 -155 -103 -212 -111 -56 -9 -75
0 -72 32 1 15 -1 38 -5 52 -42 148 -43 151 -109 193 -28 18 -39 35 -53 82 -36
117 -49 146 -81 178 -20 20 -33 43 -34 62 -10 155 -129 262 -240 216 -17 -7
-34 -23 -38 -35 -4 -11 -6 -21 -5 -21 1 0 -4 -13 -12 -29 -12 -22 -13 -35 -5
-60 22 -63 74 -121 140 -156 36 -19 37 -22 32 -63 -7 -56 15 -106 75 -171 59
-62 67 -78 76 -141 7 -59 33 -104 78 -137 31 -23 66 -42 77 -40 3 0 5 -39 6
-86 1 -103 12 -134 91 -249 71 -104 80 -155 37 -220 -39 -59 -101 -81 -171
-60 -21 6 -47 11 -58 11 -14 1 -20 9 -22 29 -3 37 -24 69 -65 100 -55 40 -292
134 -363 143 -11 1 -32 5 -48 8 -33 8 -82 -15 -98 -45 -43 -82 -2 -153 151
-256 135 -91 219 -118 305 -99 28 6 32 3 48 -29 11 -24 37 -48 79 -75 90 -56
156 -104 208 -151 182 -166 234 -205 325 -250 138 -67 264 -73 380 -19 98 45
118 50 225 56 115 6 199 26 260 61 62 36 136 115 169 182 62 124 65 230 11
392 -37 109 -38 115 -44 235 -3 55 0 114 8 146 22 94 7 176 -43 247 l-19 27
28 19 c16 11 39 40 51 64 18 36 83 243 103 331 2 8 16 57 31 108 39 137 35
202 -17 265 -18 22 -35 30 -69 34 -78 9 -111 -39 -176 -257 -13 -47 -33 -114
-44 -150 -11 -36 -26 -105 -35 -155 -8 -49 -16 -97 -18 -105 -3 -15 5 -56 18
-96 6 -19 2 -22 -41 -28 -27 -4 -57 -9 -68 -11 -32 -6 -87 14 -136 50 l-46 33
-1 100 c-1 76 -7 113 -23 153 -19 50 -20 59 -8 109 20 81 13 123 -34 229 -39
90 -42 102 -43 191 -2 144 -24 208 -97 287 -69 75 -115 88 -175 48z"/>
<path d="M6882 9490 c-47 -11 -70 -36 -88 -98 -9 -30 -25 -74 -36 -99 -14 -33
-19 -60 -16 -93 5 -45 3 -47 -31 -66 -31 -16 -116 -122 -106 -132 1 -2 -4 -24
-11 -49 -8 -26 -17 -72 -20 -102 -5 -48 -12 -62 -50 -103 -24 -26 -51 -64 -60
-85 -9 -21 -23 -53 -30 -71 -28 -67 -15 -132 38 -182 l32 -31 -29 5 c-41 7
-115 18 -142 21 -68 9 -166 55 -188 89 -15 23 -15 26 21 73 41 54 84 138 84
167 0 10 -5 36 -11 57 -13 41 -15 35 64 184 13 24 22 60 23 91 1 41 8 59 37
97 60 79 72 159 36 234 -21 43 -61 73 -96 73 -10 0 -37 -9 -61 -20 -34 -15
-47 -29 -63 -65 -21 -48 -24 -127 -6 -197 9 -35 7 -39 -26 -68 -43 -37 -59
-81 -62 -169 -2 -36 -3 -71 -4 -77 -1 -6 -20 -39 -42 -72 -50 -74 -58 -139
-28 -209 l18 -43 -23 -12 c-54 -29 -129 -144 -141 -218 -2 -8 -5 -31 -9 -50
-12 -75 -18 -96 -34 -124 -60 -102 -196 -95 -264 14 -39 63 -42 71 -31 79 19
12 34 52 35 90 1 93 -164 431 -224 457 -51 24 -124 -9 -145 -66 -11 -30 -10
-132 2 -195 17 -86 40 -165 61 -206 22 -44 77 -102 105 -111 11 -4 11 -10 1
-32 -17 -37 -15 -74 8 -164 22 -90 27 -130 35 -284 10 -214 25 -288 80 -403
55 -114 133 -184 245 -219 53 -17 153 -77 168 -100 16 -26 130 -111 179 -133
115 -53 286 -39 404 33 77 47 127 107 189 229 28 56 64 115 79 131 15 16 40
46 56 67 16 22 56 57 89 80 97 65 146 128 161 210 7 35 10 37 37 33 52 -8 124
22 336 140 280 156 303 174 322 254 20 86 -20 143 -99 142 -45 -1 -122 -37
-332 -153 -153 -86 -267 -172 -294 -222 -11 -20 -22 -37 -25 -37 -3 0 -27 17
-55 38 -58 44 -90 97 -100 163 l-7 47 66 69 c36 38 77 94 92 124 25 51 67 98
89 99 16 0 60 43 82 80 11 19 34 71 49 115 25 70 38 89 103 155 94 95 123 154
127 264 5 115 -22 153 -110 160 -90 7 -167 -66 -220 -209 -20 -54 -39 -83 -77
-120 -54 -53 -81 -100 -119 -205 -21 -56 -37 -78 -118 -158 l-94 -93 -41 19
c-23 11 -51 23 -62 27 -18 7 -18 8 7 15 47 14 115 68 134 107 22 47 30 149 15
207 -11 44 -10 46 31 108 66 98 118 206 118 242 0 20 8 40 20 51 29 26 77 104
95 155 28 78 15 182 -27 217 -30 25 -83 40 -116 33z"/>
<path d="M1863 7735 c-61 -26 -72 -94 -29 -187 68 -147 185 -349 260 -448 49
-65 73 -88 104 -96 12 -3 22 -8 22 -10 0 -2 -15 -26 -32 -53 -40 -60 -76 -85
-149 -104 -56 -14 -57 -14 -90 12 -18 14 -48 42 -66 62 -18 20 -65 53 -103 73
-47 25 -75 47 -86 67 -33 64 -83 107 -157 134 -129 47 -145 57 -202 116 -66
70 -114 102 -182 122 -58 18 -170 15 -200 -4 -51 -32 -63 -129 -23 -194 27
-43 94 -88 178 -117 51 -18 81 -37 127 -81 63 -60 71 -65 200 -118 70 -29 90
-43 168 -123 l88 -91 -15 -30 c-9 -16 -21 -43 -27 -60 l-11 -30 -12 30 c-40
106 -113 154 -236 155 -25 0 -62 -5 -83 -11 -32 -9 -43 -7 -64 8 -102 71 -215
132 -263 139 -29 5 -61 20 -93 46 -150 118 -329 115 -371 -5 -16 -48 -9 -92
18 -118 22 -21 155 -73 226 -88 19 -4 47 -4 63 0 18 5 27 3 27 -5 0 -23 63
-87 110 -111 59 -30 146 -52 217 -54 13 -1 42 -20 65 -43 55 -53 178 -110 235
-109 51 0 94 21 122 58 l21 28 -5 -25 c-2 -14 -9 -59 -15 -101 -16 -123 -61
-228 -105 -245 -7 -3 -35 10 -62 30 -87 62 -146 87 -190 79 -73 -14 -106 -7
-180 36 -57 34 -82 43 -126 45 -44 2 -63 9 -93 33 -40 32 -118 63 -157 63 -68
0 -141 -46 -154 -97 -7 -32 14 -97 41 -121 39 -35 82 -45 164 -39 42 3 86 9
97 12 15 4 25 -2 39 -24 30 -45 79 -64 175 -67 77 -2 87 -5 136 -39 83 -57
147 -66 234 -34 29 10 36 10 40 -2 8 -25 84 -90 134 -116 27 -13 87 -30 134
-38 105 -17 151 -40 181 -91 26 -45 24 -106 -4 -150 -19 -29 -134 -109 -134
-93 0 14 -63 39 -100 39 -29 0 -145 -35 -165 -50 -5 -4 -27 -13 -47 -19 -93
-30 -232 -120 -245 -158 -20 -58 6 -115 65 -140 49 -20 154 -12 285 21 132 34
181 66 233 154 1 2 17 -3 35 -10 40 -16 54 -16 138 6 89 24 157 32 331 41 58
3 126 8 150 11 218 28 388 140 436 289 28 85 59 137 122 205 133 143 175 269
142 425 -31 147 -111 243 -271 325 -122 62 -247 162 -293 234 -61 95 -145 157
-218 160 -26 1 -27 3 -23 38 6 47 -19 114 -86 233 -28 50 -71 128 -96 175 -86
159 -123 209 -173 235 -40 21 -92 25 -127 10z"/>
<path d="M7784 7499 c-37 -11 -78 -49 -133 -123 -42 -56 -113 -179 -119 -206
-11 -45 -12 -121 -3 -138 10 -18 6 -23 -31 -44 -32 -17 -55 -43 -93 -105 -55
-90 -86 -130 -158 -209 -93 -101 -108 -120 -151 -179 -91 -125 -135 -246 -131
-356 3 -67 8 -82 52 -178 29 -61 35 -88 39 -158 7 -150 14 -186 52 -267 52
-111 174 -207 301 -236 73 -17 169 -8 271 26 47 15 88 29 93 30 4 1 8 2 10 4
15 13 242 17 292 5 84 -20 212 3 250 45 16 18 18 18 46 -15 46 -52 56 -56 489
-177 146 -41 204 -39 267 8 64 48 62 125 -4 172 -50 35 -420 147 -523 159 -30
3 -64 9 -74 13 -19 7 -96 -2 -128 -15 -12 -5 -17 -2 -16 12 0 10 -4 40 -10 67
-6 28 -6 61 -1 78 10 37 55 114 72 125 6 4 54 9 106 10 68 1 109 7 152 23 52
20 64 21 101 11 24 -7 54 -13 68 -15 38 -5 122 20 192 56 57 29 73 32 168 35
58 2 112 4 120 4 24 2 133 57 160 81 14 13 38 40 54 61 23 30 27 44 23 71 -8
49 -34 84 -79 107 -67 34 -136 27 -247 -24 -54 -24 -83 -31 -156 -34 -66 -3
-105 -11 -150 -29 -149 -63 -151 -63 -280 -61 l-123 2 -12 40 c-6 22 -18 50
-26 63 -17 26 -12 28 21 6 47 -31 139 -33 194 -4 47 24 115 92 136 137 9 19
19 33 21 30 6 -6 160 28 229 49 28 9 66 29 85 44 27 20 47 28 82 28 54 1 147
32 195 64 115 78 119 227 7 267 -39 14 -41 13 -154 -42 -79 -39 -121 -66 -135
-86 -16 -24 -23 -28 -38 -19 -26 13 -95 12 -148 -3 -48 -14 -101 -45 -167 -98
-38 -30 -50 -34 -107 -36 -66 -1 -180 -39 -220 -73 -38 -32 -58 -74 -58 -123
l0 -48 -59 82 c-96 132 -116 182 -109 271 0 11 6 16 15 13 21 -8 142 19 190
42 27 14 50 36 68 65 24 40 34 47 85 61 103 28 144 47 176 78 24 24 45 33 86
38 144 20 242 139 194 237 -10 22 -29 35 -66 50 -49 18 -55 19 -92 4 -50 -20
-109 -74 -142 -129 -23 -40 -25 -41 -69 -38 -59 5 -105 -16 -168 -75 -54 -51
-79 -65 -138 -74 -80 -13 -130 -50 -164 -122 l-19 -41 -70 2 c-91 3 -148 -15
-226 -70 -122 -87 -189 -103 -254 -61 -59 39 -77 98 -56 189 14 63 17 67 43
67 52 0 101 58 154 183 62 147 72 181 91 298 10 68 -67 121 -143 98z"/>
<path d="M5479 6269 c-23 -9 -56 -29 -73 -46 -17 -16 -107 -164 -200 -329 -93
-164 -182 -320 -197 -345 -16 -25 -29 -51 -29 -57 0 -7 -4 -12 -10 -12 -5 0
-10 -4 -10 -9 0 -5 -25 -54 -56 -108 -31 -54 -68 -118 -82 -143 -14 -25 -61
-108 -105 -185 -44 -77 -91 -160 -105 -185 -64 -114 -284 -501 -372 -655 -111
-195 -120 -217 -116 -284 6 -88 78 -178 156 -197 75 -19 159 6 211 63 26 28
109 164 109 179 0 4 6 15 14 23 7 9 27 41 43 71 17 30 68 120 113 200 45 80
94 165 108 190 14 25 70 124 125 220 55 96 111 195 125 219 14 25 38 67 53 93
16 27 29 51 29 53 0 3 18 34 40 70 22 36 40 68 40 70 0 3 11 23 24 44 13 21
43 73 67 117 23 43 45 81 48 84 4 3 12 16 18 30 7 14 25 48 41 75 244 424 272
477 276 530 6 62 -18 129 -62 172 -32 32 -86 61 -104 55 -5 -1 -8 2 -8 6 0 14
-68 8 -111 -9z"/>
<path d="M3515 5830 c-16 -3 -43 -14 -60 -22 -25 -13 -188 -177 -469 -472 -27
-28 -88 -92 -136 -142 -99 -102 -116 -129 -128 -207 -7 -44 -5 -65 10 -103 19
-54 24 -59 307 -352 421 -437 408 -425 466 -437 147 -32 270 71 270 225 -1 88
-23 123 -172 276 -65 67 -171 177 -236 244 l-119 123 104 105 c57 58 123 126
148 152 25 26 86 90 136 141 49 52 100 110 112 130 27 44 37 124 23 177 -30
110 -151 187 -256 162z"/>
<path d="M6394 5825 c-88 -26 -148 -99 -160 -193 -8 -68 17 -139 71 -197 83
-90 381 -400 413 -428 17 -17 32 -36 32 -43 0 -7 -26 -39 -57 -72 -323 -334
-421 -439 -437 -470 -75 -145 32 -332 192 -332 77 0 119 24 212 120 101 104
450 466 534 554 72 76 96 124 96 196 0 98 -16 120 -285 396 -33 33 -141 145
-240 249 -99 103 -196 195 -215 205 -47 24 -107 30 -156 15z"/>
<path d="M8511 4798 c-133 -27 -197 -54 -248 -104 -23 -24 -43 -51 -43 -60 0
-15 -2 -15 -25 0 -30 20 -77 20 -138 2 -26 -8 -47 -12 -47 -10 0 2 -11 -1 -24
-5 -26 -10 -103 -18 -246 -26 -210 -11 -301 -29 -406 -81 -111 -55 -168 -118
-214 -238 -33 -85 -51 -115 -97 -166 -67 -75 -85 -96 -108 -131 -57 -87 -78
-223 -51 -327 41 -160 118 -243 316 -340 36 -18 79 -45 97 -60 17 -15 50 -42
73 -61 22 -19 58 -59 79 -90 70 -102 138 -152 212 -155 20 0 35 -5 32 -10 -10
-16 -4 -95 11 -131 34 -80 250 -457 286 -497 63 -72 156 -86 210 -32 21 20 25
33 23 75 -1 43 -15 76 -94 222 -96 179 -150 268 -181 301 -10 11 -20 27 -23
35 -6 18 -86 81 -103 81 -18 0 -15 7 29 66 44 59 91 88 166 100 44 7 60 -2
132 -80 20 -21 66 -53 102 -72 49 -24 73 -44 90 -71 48 -82 95 -114 228 -158
42 -14 72 -34 130 -91 100 -97 166 -130 268 -133 68 -2 126 17 141 46 33 63
20 141 -33 196 -33 34 -132 87 -188 101 -15 4 -54 32 -85 62 -59 58 -103 84
-212 125 -55 20 -78 38 -157 118 l-92 93 24 49 c14 26 25 56 26 66 0 10 9 -5
20 -34 27 -71 79 -119 145 -134 49 -11 146 -8 190 6 13 4 27 1 35 -7 21 -20
161 -105 210 -128 24 -11 58 -20 74 -20 20 0 44 -12 70 -35 83 -72 199 -110
279 -90 26 7 58 23 71 35 29 27 47 83 38 119 -8 38 -50 78 -88 85 -18 4 -60
17 -93 31 -62 25 -115 33 -144 20 -13 -5 -18 -3 -18 9 0 28 -61 86 -124 115
-60 28 -99 38 -185 48 -36 4 -54 13 -88 47 -24 24 -62 51 -86 61 -23 10 -56
24 -74 31 -38 17 -96 18 -126 3 -12 -6 -37 -25 -56 -43 -19 -17 -31 -26 -28
-20 4 6 9 33 12 60 14 127 33 202 63 246 21 32 72 74 72 59 0 -23 165 -121
204 -121 10 0 36 5 57 11 36 11 43 9 142 -41 88 -44 111 -51 145 -47 33 3 45
0 62 -18 34 -36 111 -69 170 -72 67 -5 123 24 151 76 17 31 17 36 2 75 -22 55
-38 72 -87 91 -41 16 -101 16 -191 0 -37 -6 -42 -4 -54 19 -23 42 -92 69 -184
71 -71 2 -83 6 -123 34 -85 59 -141 69 -233 41 -39 -12 -45 -12 -49 0 -8 25
-84 91 -132 115 -26 13 -83 29 -128 36 -109 17 -161 43 -189 97 -23 47 -23 94
2 142 17 32 134 108 144 93 12 -19 50 -33 89 -33 70 0 277 84 383 155 78 52
77 51 84 96 7 45 -24 96 -71 115 -44 18 -104 16 -223 -8z"/>
<path d="M915 4782 c-46 -22 -75 -66 -75 -114 0 -49 41 -84 141 -119 46 -16
84 -29 84 -30 0 0 7 -2 16 -4 8 -1 71 -19 140 -38 116 -34 140 -39 229 -53 72
-11 106 -10 138 2 37 15 34 19 52 -63 14 -62 4 -102 -43 -174 l-30 -46 -91 -1
c-102 -2 -112 -3 -178 -28 -41 -16 -52 -16 -105 -4 -78 18 -116 14 -193 -22
-117 -54 -140 -60 -236 -59 -108 2 -184 -21 -252 -77 -65 -52 -96 -103 -87
-144 25 -112 144 -151 290 -93 39 15 75 32 82 37 6 5 53 11 104 13 83 4 148
17 174 35 6 3 35 17 65 30 48 21 71 24 188 24 142 1 136 3 147 -54 2 -13 11
-33 20 -46 18 -29 18 -29 -26 -7 -19 9 -61 18 -93 19 -48 2 -67 -2 -100 -23
-57 -35 -94 -71 -122 -118 -22 -39 -27 -41 -96 -54 -106 -19 -223 -58 -255
-85 -20 -16 -47 -25 -92 -29 -160 -17 -290 -132 -264 -235 13 -56 63 -102 110
-102 16 0 146 58 213 94 14 8 34 27 46 44 18 27 23 28 44 17 32 -17 117 -9
175 16 38 17 112 65 145 94 20 18 41 24 100 28 41 2 93 13 115 22 22 10 42 19
45 19 3 1 22 11 43 24 46 26 80 95 72 141 -3 18 -1 31 5 31 5 0 10 -5 10 -11
0 -6 17 -32 38 -58 81 -99 119 -178 118 -246 -1 -40 -1 -40 -46 -46 -143 -20
-190 -41 -227 -104 -22 -35 -36 -46 -76 -59 -27 -9 -57 -16 -66 -16 -28 -1
-95 -36 -126 -67 -23 -23 -43 -32 -84 -37 -144 -18 -244 -143 -192 -239 16
-30 86 -62 126 -58 62 6 132 63 177 143 19 33 25 37 52 32 62 -11 100 5 176
71 51 46 83 66 109 70 109 17 160 50 199 128 l22 44 50 -5 c88 -8 160 14 256
79 48 33 104 64 126 71 105 31 202 -70 176 -184 -5 -24 -11 -51 -14 -62 -4
-24 -4 -24 -36 -28 -65 -9 -100 -56 -170 -228 -53 -129 -69 -188 -71 -262 -1
-48 31 -84 83 -93 72 -12 131 33 221 170 89 134 114 216 95 303 -6 25 -4 32 7
32 27 0 74 48 117 121 46 78 136 189 246 303 25 26 108 144 126 181 75 145 84
315 23 411 -25 40 -47 120 -50 189 -7 134 -15 182 -44 246 -65 144 -217 247
-378 254 -77 4 -96 0 -238 -45 -49 -15 -128 -31 -175 -36 -108 -9 -93 -10
-190 11 -80 17 -181 0 -228 -40 l-29 -24 -29 30 c-50 53 -61 57 -389 150 -210
60 -282 69 -340 41z"/>
<path d="M3651 3134 c-132 -35 -222 -114 -301 -267 -63 -122 -158 -243 -220
-283 -101 -64 -174 -158 -174 -225 0 -26 -2 -27 -55 -28 -54 0 -133 -32 -246
-99 -16 -10 -82 -47 -145 -82 -63 -35 -134 -76 -158 -92 -108 -74 -130 -207
-42 -253 39 -20 77 -13 175 35 272 134 449 249 499 325 l29 44 36 -27 c88 -64
109 -96 118 -182 5 -46 4 -47 -57 -107 -35 -35 -76 -89 -94 -125 -21 -39 -46
-71 -67 -85 -68 -44 -80 -55 -103 -91 -12 -20 -31 -62 -41 -92 -28 -86 -43
-110 -115 -185 -65 -68 -105 -131 -118 -184 -3 -14 -6 -59 -6 -98 0 -58 4 -78
21 -100 11 -16 24 -28 29 -29 5 0 23 -4 41 -8 49 -11 113 11 154 54 22 23 52
76 77 136 34 81 52 109 96 152 44 42 61 68 86 134 51 132 54 136 172 245 25
23 48 48 50 55 3 8 20 4 58 -15 30 -15 60 -27 68 -27 7 0 11 -4 7 -10 -3 -5
-11 -7 -19 -4 -18 7 -107 -55 -132 -94 -29 -43 -40 -141 -24 -216 11 -53 10
-60 -8 -79 -29 -33 -112 -175 -128 -220 -8 -22 -14 -50 -14 -62 0 -12 -14 -38
-31 -56 -17 -19 -44 -61 -59 -93 -54 -110 -52 -203 5 -262 18 -19 44 -35 57
-36 12 -1 32 -2 43 -3 27 -2 71 24 84 49 13 27 49 127 65 186 8 27 10 56 5 72
-6 23 -4 30 14 39 93 48 149 166 156 330 1 8 20 36 44 61 62 66 108 166 109
235 0 46 -31 106 -64 124 -29 15 -18 19 27 9 22 -5 60 -11 85 -13 101 -11 177
-41 222 -88 l27 -28 -29 -31 c-17 -18 -46 -65 -66 -105 -35 -72 -36 -74 -24
-128 12 -53 12 -58 -14 -104 -53 -95 -69 -139 -70 -183 -1 -32 -9 -55 -27 -80
-44 -59 -62 -103 -65 -159 -3 -74 29 -132 86 -157 20 -9 36 -7 77 9 44 16 56
26 73 61 23 48 27 152 9 206 -11 30 -10 35 18 59 49 42 66 87 70 180 3 76 6
88 36 130 18 25 37 55 41 66 16 41 17 101 2 148 l-14 48 54 55 c31 30 64 76
76 102 20 49 24 61 33 122 5 33 11 64 20 100 2 8 4 17 4 20 3 16 53 62 82 74
70 28 145 -1 191 -74 41 -67 42 -69 24 -89 -36 -40 -31 -126 15 -229 23 -51
31 -70 50 -121 24 -64 106 -177 139 -191 39 -16 94 3 124 43 18 25 21 41 20
120 -2 108 -39 263 -77 324 -24 37 -74 87 -96 95 -7 2 -6 17 3 41 12 37 11 64
-9 137 -23 86 -30 143 -40 332 -10 192 -30 282 -87 389 -54 103 -119 158 -242
204 -80 30 -105 46 -171 107 -65 60 -92 81 -137 106 -87 49 -211 63 -317 36z"/>
<path d="M6095 3030 c-30 -7 -131 -47 -150 -60 -15 -11 -59 -20 -122 -25 -149
-12 -187 -17 -226 -31 -144 -51 -247 -167 -283 -320 -21 -91 -13 -166 31 -297
20 -56 34 -109 33 -117 -1 -8 2 -40 6 -70 9 -76 9 -98 0 -150 -5 -25 -9 -81
-9 -126 0 -73 3 -86 31 -131 l32 -51 -29 -21 c-40 -29 -63 -79 -99 -212 -18
-63 -38 -133 -46 -156 -7 -23 -16 -52 -18 -65 -3 -13 -15 -54 -26 -93 -45
-154 0 -273 105 -277 38 -1 76 26 100 73 31 59 142 449 151 531 10 89 10 104
-3 141 -6 20 -11 37 -10 38 39 14 135 24 163 17 46 -12 127 -70 131 -93 2 -11
3 -45 2 -75 0 -30 0 -63 0 -73 0 -10 10 -48 22 -84 20 -60 20 -70 8 -127 -20
-91 -17 -105 42 -231 36 -77 38 -85 40 -195 1 -63 5 -121 9 -130 4 -8 19 -37
31 -63 28 -56 105 -133 143 -143 99 -25 186 103 153 226 -5 19 -23 67 -40 105
-25 58 -31 85 -33 158 -1 52 -8 101 -17 120 -71 154 -72 156 -72 299 l0 127
29 7 c16 3 45 15 63 25 38 21 39 20 16 -24 -22 -42 -26 -143 -6 -181 23 -44
100 -122 139 -141 27 -13 34 -22 34 -45 0 -16 4 -40 9 -53 5 -13 12 -38 14
-55 10 -59 49 -163 73 -191 17 -20 24 -41 24 -69 0 -53 31 -152 61 -194 58
-81 124 -111 192 -87 44 15 87 66 87 102 0 33 -100 230 -131 257 -26 22 -28
29 -20 62 18 79 -12 171 -90 274 -43 57 -47 66 -52 135 -4 55 -14 93 -40 150
-41 91 -79 121 -155 121 -47 0 -47 0 -22 17 13 9 38 28 55 42 87 76 188 119
258 111 23 -3 27 -8 28 -35 1 -44 7 -75 29 -145 13 -40 31 -60 94 -105 16 -11
31 -37 42 -75 32 -111 46 -143 79 -175 25 -25 33 -43 38 -85 8 -70 52 -148
100 -179 42 -26 110 -33 145 -14 27 14 54 74 55 118 1 48 -56 125 -125 169
-56 37 -58 38 -52 75 9 55 -11 102 -76 173 -55 61 -62 76 -75 156 -9 55 -50
107 -111 141 -47 27 -55 35 -49 53 4 12 6 37 5 57 -2 87 -22 138 -93 240 -68
100 -81 150 -50 209 37 72 103 93 212 68 46 -10 51 -14 51 -39 0 -39 50 -93
115 -124 50 -23 103 -46 115 -50 3 -1 22 -9 43 -18 41 -18 106 -37 147 -43 14
-3 41 -7 61 -10 71 -11 129 74 99 146 -27 64 -140 156 -271 220 -80 39 -168
52 -209 30 -17 -9 -20 -8 -20 9 0 30 -44 76 -106 111 -78 44 -127 80 -218 163
-44 40 -93 84 -110 100 -46 41 -161 115 -211 137 -92 39 -199 55 -270 40z"/>
</g>
</svg>
